# xmcd CD database file
#
# Track frame offsets:
#	187
#	13970
#	30625
#	44875
#	57352
#	72792
#	87177
#	101792
#	115765
#	131912
#	144757
#	154590
#	169032
#	180387
#	195365
#	210595
#	226227
#	235960
#	248887
#	261227
#	274775
#	288042
#	303415
#
# Disc length: 4185 seconds
#
# Revision: 0
# Processed by: cddbd v1.5PL3 Copyright (c) Steve Scherf et al.
# Submitted via: CDex 1.51
#
DISCID=42105717
DTITLE=Benny Goodman and His Orchestra - Benny Goodman and HIS Orchestra [CD1]
DYEAR=1990
DGENRE=Jazz
TTITLE0=Hunkadola
TTITLE1=Sometimes I'm Happy
TTITLE2=King Porter Stomp
TTITLE3=The Devil And The Deep Blue Sea
TTITLE4=Goodbye
TTITLE5=When Buddha Smiles
TTITLE6=Stompin' At The Savoy
TTITLE7=Get Happy
TTITLE8=Christopher Columbus
TTITLE9=(I Would Do)Anything For You
TTITLE10=I've Found A New Baby
TTITLE11=Swingtime In The Rockies
TTITLE12=There's A Small Hotel
TTITLE13=Down South Camp Meeting
TTITLE14=St. Louis Blues
TTITLE15=Riffin' At The Ritz
TTITLE16=Alexander's Ragtime Band
TTITLE17=Somebody Loves Me
TTITLE18='Taint No Use
TTITLE19=Bugle Call Rag
TTITLE20=Jam Session
TTITLE21=Goodnight My Love
TTITLE22=Did Ja Mean It(Hope You Did Cause So Did I)
EXTD=YEAR: 1990
EXTT0=
EXTT1=
EXTT2=
EXTT3=
EXTT4=
EXTT5=
EXTT6=
EXTT7=
EXTT8=
EXTT9=
EXTT10=
EXTT11=
EXTT12=
EXTT13=
EXTT14=
EXTT15=
EXTT16=
EXTT17=
EXTT18=
EXTT19=
EXTT20=
EXTT21=
EXTT22=
PLAYORDER=
